<svg width="18" height="11" viewBox="0 0 18 11" fill="none" xmlns="http://www.w3.org/2000/svg">
<path d="M13.5753 3.16856L14.6969 1.11524C14.807 0.913693 14.7326 0.661444 14.5315 0.551318C14.3303 0.441193 14.0773 0.515164 13.9675 0.716714L12.8559 2.75133C11.6557 2.12964 10.2968 1.77309 8.85191 1.77309C7.40699 1.77309 6.04808 2.12964 4.84792 2.75133L3.73628 0.716714C3.62574 0.51558 3.37349 0.440362 3.17236 0.551318C2.97122 0.661444 2.89683 0.913693 3.00696 1.11524L4.12857 3.16856C1.72202 4.72237 0.125 7.42231 0.125 10.5H17.5788C17.5788 7.42231 15.9818 4.72237 13.5753 3.16856ZM5.11181 7.59103C4.65302 7.59103 4.28067 7.21868 4.28067 6.75989C4.28067 6.30111 4.65302 5.92876 5.11181 5.92876C5.57059 5.92876 5.94294 6.30111 5.94294 6.75989C5.94294 7.21868 5.57059 7.59103 5.11181 7.59103ZM12.592 7.59103C12.1332 7.59103 11.7609 7.21868 11.7609 6.75989C11.7609 6.30111 12.1332 5.92876 12.592 5.92876C13.0508 5.92876 13.4232 6.30111 13.4232 6.75989C13.4232 7.21868 13.0508 7.59103 12.592 7.59103Z" fill="white"/>
</svg>
