<svg width="11" height="13" viewBox="0 0 11 13" fill="none" xmlns="http://www.w3.org/2000/svg">
<g clip-path="url(#clip0_780_7509)">
<path d="M8.18974 11.787C7.55809 12.3948 6.86119 12.3001 6.19691 12.0135C5.49068 11.7211 4.84508 11.7026 4.0992 12.0135C3.1704 12.411 2.67744 12.2955 2.11806 11.787C-1.04014 8.56258 -0.573986 3.65083 3.01541 3.46592C3.88594 3.51215 4.49546 3.94323 5.0082 3.97905C5.77039 3.82535 6.49991 3.38502 7.31569 3.44281C8.29579 3.52139 9.0288 3.90509 9.51825 4.59504C7.50214 5.79699 7.97996 8.43196 9.83175 9.17161C9.46117 10.1366 8.98567 11.0901 8.18854 11.7951L8.18974 11.787ZM4.9383 3.43125C4.84391 1.99818 6.01511 0.819367 7.3623 0.703796C7.54759 2.35645 5.8473 3.59305 4.9383 3.43125Z" fill="white"/>
</g>
<defs>
<clipPath id="clip0_780_7509">
<rect width="10.125" height="12" fill="white" transform="translate(0 0.5)"/>
</clipPath>
</defs>
</svg>
