<svg width="51" height="25" viewBox="0 0 51 25" fill="none" xmlns="http://www.w3.org/2000/svg">
<g clip-path="url(#clip0_922_7375)">
<path d="M16.8795 23.5584C15.6162 24.7742 14.2224 24.5847 12.8938 24.0114C11.4814 23.4267 10.1901 23.3897 8.6984 24.0114C6.8408 24.8066 5.85489 24.5754 4.73611 23.5584C-1.58028 17.1096 -0.647972 7.28616 6.53081 6.91634C8.27188 7.0088 9.49092 7.87095 10.5164 7.9426C12.0408 7.63519 13.4998 6.75454 15.1314 6.87011C17.0916 7.02728 18.5576 7.79467 19.5365 9.17457C15.5043 11.5785 16.4599 16.8484 20.1635 18.3277C19.4224 20.2578 18.4713 22.1646 16.8771 23.5746L16.8795 23.5584ZM10.3766 6.847C10.1878 3.98086 12.5302 1.62323 15.2246 1.39209C15.5952 4.69739 12.1946 7.17059 10.3766 6.847Z" fill="white"/>
</g>
<g clip-path="url(#clip1_922_7375)">
<path fill-rule="evenodd" clip-rule="evenodd" d="M29.486 2.68242C29.23 2.93821 29.0828 3.33191 29.0828 3.84349V22.0403C29.0828 22.5519 29.23 22.9455 29.4956 23.1924L29.565 23.2469L40.5362 13.0509V12.8217L29.5555 2.62793L29.486 2.68242Z" fill="white" fill-opacity="0.6"/>
<path fill-rule="evenodd" clip-rule="evenodd" d="M44.1863 16.4634L40.5269 13.0614V12.8234L44.1875 9.42139L44.2665 9.46697L48.5961 11.7535C49.8359 12.403 49.8359 13.4729 48.5961 14.1312L44.2665 16.4178C44.2653 16.4178 44.1863 16.4634 44.1863 16.4634Z" fill="white"/>
<path fill-rule="evenodd" clip-rule="evenodd" d="M44.2651 16.4178L40.5266 12.9424L29.4861 23.2029C29.8894 23.6055 30.5679 23.6511 31.3266 23.2574L44.2651 16.4178Z" fill="white" fill-opacity="0.8"/>
<path fill-rule="evenodd" clip-rule="evenodd" d="M44.2651 9.46764L31.3266 2.63692C30.5691 2.23432 29.8894 2.28882 29.4861 2.69141L40.5254 12.942L44.2651 9.46764Z" fill="white" fill-opacity="0.8"/>
<g opacity="0.2">
<mask id="mask0_922_7375" style="mask-type:alpha" maskUnits="userSpaceOnUse" x="29" y="16" width="16" height="8">
<g opacity="0.2">
<path opacity="0.2" fill-rule="evenodd" clip-rule="evenodd" d="M44.1861 16.3438L31.3361 23.1289C30.6181 23.5126 29.9779 23.4858 29.565 23.1378L29.4956 23.2023L29.565 23.2568C29.9779 23.6038 30.6181 23.6316 31.3361 23.2479L44.2746 16.4171L44.1861 16.3438Z" fill="white"/>
</g>
</mask>
<g mask="url(#mask0_922_7375)">
<path opacity="0.2" fill-rule="evenodd" clip-rule="evenodd" d="M44.1861 16.3438L31.3361 23.1289C30.6181 23.5126 29.9779 23.4858 29.565 23.1378L29.4956 23.2023L29.565 23.2568C29.9779 23.6038 30.6181 23.6316 31.3361 23.2479L44.2746 16.4171L44.1861 16.3438Z" fill="white"/>
<path opacity="0.2" d="M44.1859 16.3435L44.6518 15.7814L44.2764 15.4702L43.845 15.6979L44.1859 16.3435ZM31.336 23.1287L30.9951 22.4831L30.9919 22.4848L31.336 23.1287ZM29.5649 23.1376L30.0355 22.5794L29.5414 22.1628L29.0679 22.6028L29.5649 23.1376ZM29.4955 23.202L28.9985 22.6673L28.3728 23.2488L29.0447 23.7763L29.4955 23.202ZM29.5649 23.2566L30.0346 22.6977L30.0253 22.6899L30.0157 22.6824L29.5649 23.2566ZM31.336 23.2477L30.9951 22.6021L30.9919 22.6038L31.336 23.2477ZM44.2745 16.4169L44.6153 17.0625L45.5818 16.5523L44.7403 15.8549L44.2745 16.4169ZM43.845 15.6979L30.9951 22.4831L31.6769 23.7743L44.5268 16.9891L43.845 15.6979ZM30.9919 22.4848C30.4292 22.7855 30.1387 22.6665 30.0355 22.5794L29.0943 23.6957C29.8168 24.3049 30.8068 24.2393 31.6801 23.7725L30.9919 22.4848ZM29.0679 22.6028L28.9985 22.6673L29.9925 23.7369L30.0619 23.6724L29.0679 22.6028ZM29.0447 23.7763L29.1141 23.8308L30.0157 22.6824L29.9463 22.6278L29.0447 23.7763ZM29.0952 23.8154C29.8168 24.4219 30.8056 24.3588 31.6801 23.8915L30.9919 22.6038C30.4304 22.9039 30.1388 22.7852 30.0346 22.6977L29.0952 23.8154ZM31.6768 23.8933L44.6153 17.0625L43.9336 15.7713L30.9951 22.6021L31.6768 23.8933ZM44.7403 15.8549L44.6518 15.7814L43.72 16.9056L43.8086 16.979L44.7403 15.8549Z" fill="white"/>
</g>
</g>
<g opacity="0.12">
<mask id="mask1_922_7375" style="mask-type:alpha" maskUnits="userSpaceOnUse" x="44" y="12" width="6" height="5">
<g opacity="0.12">
<path opacity="0.12" fill-rule="evenodd" clip-rule="evenodd" d="M48.5949 14.0122L44.1768 16.3443L44.2557 16.4178L48.5853 14.1312C49.2052 13.802 49.5103 13.3728 49.5103 12.9424C49.4709 13.336 49.1561 13.7109 48.5949 14.0122Z" fill="white"/>
</g>
</mask>
<g mask="url(#mask1_922_7375)">
<path opacity="0.12" fill-rule="evenodd" clip-rule="evenodd" d="M48.5949 14.0122L44.1768 16.3443L44.2557 16.4178L48.5853 14.1312C49.2052 13.802 49.5103 13.3728 49.5103 12.9424C49.4709 13.336 49.1561 13.7109 48.5949 14.0122Z" fill="white"/>
<path opacity="0.12" d="M48.5949 14.0123L48.9357 14.658L48.9402 14.6555L48.5949 14.0123ZM44.1768 16.3445L43.836 15.6988L42.9263 16.179L43.6798 16.8793L44.1768 16.3445ZM44.2557 16.4179L43.7587 16.9527L44.1384 17.3054L44.5967 17.0634L44.2557 16.4179ZM48.5853 14.1313L48.9262 14.7769L48.9277 14.7761L48.5853 14.1313ZM49.5103 12.9425H50.2404L48.7839 12.8696L49.5103 12.9425ZM48.2541 13.3667L43.836 15.6988L44.5176 16.9901L48.9357 14.658L48.2541 13.3667ZM43.6798 16.8793L43.7587 16.9527L44.7527 15.8831L44.6738 15.8097L43.6798 16.8793ZM44.5967 17.0634L48.9262 14.7769L48.2444 13.4858L43.9148 15.7723L44.5967 17.0634ZM48.9277 14.7761C49.6674 14.3833 50.2404 13.7551 50.2404 12.9425H48.7803C48.7803 12.9907 48.7429 13.221 48.2429 13.4866L48.9277 14.7761ZM48.7839 12.8696C48.7801 12.9082 48.722 13.1155 48.2495 13.3692L48.9402 14.6555C49.5903 14.3065 50.1617 13.7641 50.2367 13.0153L48.7839 12.8696Z" fill="white"/>
</g>
</g>
<g opacity="0.25">
<mask id="mask2_922_7375" style="mask-type:alpha" maskUnits="userSpaceOnUse" x="29" y="2" width="21" height="11">
<g opacity="0.25">
<path opacity="0.25" fill-rule="evenodd" clip-rule="evenodd" d="M31.3268 2.75645L48.5948 11.8737C49.1561 12.1662 49.4708 12.5499 49.5199 12.9436C49.5199 12.5143 49.2147 12.0839 48.5948 11.7547L31.3268 2.63745C30.087 1.97907 29.083 2.52735 29.083 3.84412V3.96312C29.083 2.64635 30.087 2.10696 31.3268 2.75645Z" fill="white"/>
</g>
</mask>
<g mask="url(#mask2_922_7375)">
<path opacity="0.25" fill-rule="evenodd" clip-rule="evenodd" d="M31.3268 2.75645L48.5948 11.8737C49.1561 12.1662 49.4708 12.5499 49.5199 12.9436C49.5199 12.5143 49.2147 12.0839 48.5948 11.7547L31.3268 2.63745C30.087 1.97907 29.083 2.52735 29.083 3.84412V3.96312C29.083 2.64635 30.087 2.10696 31.3268 2.75645Z" fill="white"/>
<path opacity="0.25" d="M31.3266 2.75641L31.6675 2.11081L31.6654 2.10972L31.3266 2.75641ZM48.5947 11.8737L48.2538 12.5193L48.2573 12.5211L48.5947 11.8737ZM49.5197 12.9436L48.7953 13.0338L50.2498 12.9436H49.5197ZM48.5947 11.7547L48.9371 11.1099L48.9355 11.1091L48.5947 11.7547ZM31.3266 2.63741L30.9842 3.28219L30.9858 3.28301L31.3266 2.63741ZM30.9858 3.40201L48.2538 12.5193L48.9355 11.2281L31.6675 2.11081L30.9858 3.40201ZM48.2573 12.5211C48.7113 12.7577 48.7881 12.9758 48.7953 13.0338L50.2442 12.8533C50.1533 12.1239 49.6006 11.5747 48.9321 11.2263L48.2573 12.5211ZM50.2498 12.9436C50.2498 12.1324 49.6772 11.503 48.9371 11.1099L48.2523 12.3995C48.7519 12.6648 48.7896 12.8961 48.7896 12.9436H50.2498ZM48.9355 11.1091L31.6675 1.99181L30.9858 3.28301L48.2538 12.4003L48.9355 11.1091ZM31.669 1.99263C30.9174 1.59347 30.0857 1.48335 29.3928 1.85777C28.6827 2.24143 28.3528 3.00496 28.3528 3.84408H29.8129C29.8129 3.36643 29.9849 3.19743 30.0869 3.14235C30.2059 3.07804 30.4961 3.02296 30.9842 3.28219L31.669 1.99263ZM28.3528 3.84408V3.96308H29.8129V3.84408H28.3528ZM29.8129 3.96308C29.8129 3.48616 29.9843 3.31983 30.0855 3.26542C30.206 3.20065 30.4982 3.1466 30.9878 3.4031L31.6654 2.10972C30.9153 1.71673 30.0856 1.60764 29.3941 1.97937C28.6834 2.36148 28.3528 3.12323 28.3528 3.96308H29.8129Z" fill="white"/>
</g>
</g>
</g>
<defs>
<clipPath id="clip0_922_7375">
<rect width="20.25" height="24" fill="white" transform="translate(0.5 0.984375)"/>
</clipPath>
<clipPath id="clip1_922_7375">
<rect width="21.3125" height="22" fill="white" transform="translate(28.75 1.98438)"/>
</clipPath>
</defs>
</svg>
