<svg width="149" height="148" viewBox="0 0 149 148" fill="none" xmlns="http://www.w3.org/2000/svg">
<path d="M0.789429 8C0.789429 3.58173 4.37115 0 8.78943 0H140.789C145.208 0 148.789 3.58172 148.789 8V140C148.789 144.418 145.208 148 140.789 148H8.78943C4.37115 148 0.789429 144.418 0.789429 140V8Z" fill="#FAFAFA"/>
<g clip-path="url(#clip0_780_7466)">
<path d="M58.4949 6.72716H53.8605V11.3616H58.4949V6.72716ZM63.1294 6.72716H58.4949V11.3616H63.1294V6.72716ZM72.3983 6.72716H67.7639V11.3616H72.3983V6.72716ZM77.0328 6.72716H72.3983V11.3616H77.0328V6.72716ZM81.6672 6.72716H77.0328V11.3616H81.6672V6.72716ZM95.5702 6.72716H90.9358V11.3616H95.5702V6.72716ZM104.839 6.72716H100.205V11.3616H104.839V6.72716ZM49.2263 11.3616H44.5919V15.996H49.2263V11.3616ZM53.8607 11.3616H49.2263V15.996H53.8607V11.3616ZM63.1294 11.3616H58.4949V15.996H63.1294V11.3616ZM81.6672 11.3616H77.0328V15.996H81.6672V11.3616ZM90.9358 11.3616H86.3014V15.996H90.9358V11.3616ZM49.2263 15.996H44.5919V20.6304H49.2263V15.996ZM53.8607 15.996H49.2263V20.6304H53.8607V15.996ZM63.1294 15.996H58.4949V20.6304H63.1294V15.996ZM77.0328 15.996H72.3983V20.6304H77.0328V15.996ZM86.3016 15.996H81.6672V20.6304H86.3016V15.996ZM95.5702 15.996H90.9358V20.6304H95.5702V15.996Z" fill="#121212"/>
<path d="M49.2263 20.6302H44.5919V25.2648H49.2263V20.6302ZM67.7638 20.6302H63.1294V25.2648H67.7638V20.6302ZM77.0328 20.6302H72.3984V25.2648H77.0328V20.6302ZM81.6672 20.6302H77.0328V25.2648H81.6672V20.6302ZM90.9358 20.6302H86.3014V25.2648H90.9358V20.6302ZM58.4949 25.2648H53.8605V29.8992H58.4949V25.2648ZM72.3984 25.2648H67.7639V29.8992H72.3984V25.2648Z" fill="#121212"/>
<path d="M77.0328 25.2648H72.3984V29.8992H77.0328V25.2648ZM81.6672 25.2648H77.0328V29.8992H81.6672V25.2648ZM90.9359 25.2648H86.3015V29.8992H90.9359V25.2648ZM95.5703 25.2648H90.9359V29.8992H95.5703V25.2648ZM100.205 25.2648H95.5703V29.8992H100.205V25.2648Z" fill="#121212"/>
<path d="M104.839 25.2648H100.205V29.8992H104.839V25.2648ZM53.8608 29.8992H49.2264V34.5336H53.8608V29.8992ZM67.7638 29.8992H63.1294V34.5336H67.7638V29.8992ZM72.3984 29.8992H67.764V34.5336H72.3984V29.8992ZM77.0328 29.8992H72.3984V34.5336H77.0328V29.8992ZM86.3016 29.8992H81.6672V34.5336H86.3016V29.8992ZM49.2264 34.5336H44.592V39.168H49.2264V34.5336ZM58.495 34.5336H53.8606V39.168H58.495V34.5336ZM67.7638 34.5336H63.1294V39.168H67.7638V34.5336ZM77.0328 34.5336H72.3984V39.168H77.0328V34.5336ZM86.3016 34.5336H81.6672V39.168H86.3016V34.5336ZM95.5702 34.5336H90.9358V39.168H95.5702V34.5336ZM104.839 34.5336H100.205V39.168H104.839V34.5336ZM49.2264 39.168H44.592V43.8024H49.2264V39.168ZM53.8608 39.168H49.2264V43.8024H53.8608V39.168ZM63.1294 39.168H58.495V43.8024H63.1294V39.168ZM72.3984 39.168H67.764V43.8024H72.3984V39.168ZM95.5702 39.168H90.9358V43.8024H95.5702V39.168ZM12.1511 43.8024H7.51672V48.4368H12.1511V43.8024ZM39.9576 43.8024H35.3232V48.4368H39.9576V43.8024ZM49.2264 43.8024H44.592V48.4368H49.2264V43.8024ZM53.8608 43.8024H49.2264V48.4368H53.8608V43.8024Z" fill="#121212"/>
<path d="M58.495 43.8024H53.8606V48.4368H58.495V43.8024ZM67.7638 43.8024H63.1294V48.4368H67.7638V43.8024ZM77.0328 43.8024H72.3984V48.4368H77.0328V43.8024ZM81.6672 43.8024H77.0328V48.4368H81.6672V43.8024ZM90.9358 43.8024H86.3014V48.4368H90.9358V43.8024ZM104.839 43.8024H100.205V48.4368H104.839V43.8024ZM109.474 43.8024H104.839V48.4368H109.474V43.8024ZM114.108 43.8024H109.474V48.4368H114.108V43.8024ZM128.011 43.8024H123.377V48.4368H128.011V43.8024ZM132.645 43.8024H128.011V48.4368H132.645V43.8024ZM137.28 43.8024H132.645V48.4368H137.28V43.8024ZM12.1511 48.4368H7.51672V53.0712H12.1511V48.4368ZM16.7855 48.4368H12.1511V53.0712H16.7855V48.4368ZM53.8608 48.4368H49.2264V53.0712H53.8608V48.4368Z" fill="#121212"/>
<path d="M58.495 48.4368H53.8606V53.0712H58.495V48.4368ZM77.0328 48.4368H72.3984V53.0712H77.0328V48.4368ZM90.9358 48.4368H86.3014V53.0712H90.9358V48.4368ZM95.5702 48.4368H90.9358V53.0712H95.5702V48.4368ZM100.205 48.4368H95.5702V53.0712H100.205V48.4368ZM109.474 48.4368H104.839V53.0712H109.474V48.4368ZM118.742 48.4368H114.108V53.0712H118.742V48.4368Z" fill="#121212"/>
<path d="M123.377 48.4368H118.742V53.0712H123.377V48.4368ZM132.645 48.4368H128.011V53.0712H132.645V48.4368ZM137.28 48.4368H132.645V53.0712H137.28V48.4368ZM12.1511 53.0712H7.51672V57.7056H12.1511V53.0712ZM16.7855 53.0712H12.1511V57.7056H16.7855V53.0712ZM26.0545 53.0712H21.4201V57.7056H26.0545V53.0712Z" fill="#121212"/>
<path d="M30.6886 53.0712H26.0542V57.7056H30.6886V53.0712ZM39.9576 53.0712H35.3232V57.7056H39.9576V53.0712ZM44.592 53.0712H39.9576V57.7056H44.592V53.0712ZM95.5703 53.0712H90.9359V57.7056H95.5703V53.0712ZM104.839 53.0712H100.205V57.7056H104.839V53.0712ZM118.743 53.0712H114.108V57.7056H118.743V53.0712Z" fill="#121212"/>
<path d="M123.377 53.0712H118.742V57.7056H123.377V53.0712ZM12.1511 57.7056H7.51672V62.3398H12.1511V57.7056ZM26.0545 57.7056H21.4201V62.3398H26.0545V57.7056ZM44.592 57.7056H39.9576V62.3398H44.592V57.7056ZM49.2264 57.7056H44.592V62.3398H49.2264V57.7056ZM53.8608 57.7056H49.2264V62.3398H53.8608V57.7056Z" fill="#121212"/>
<path d="M58.495 57.7056H53.8606V62.3398H58.495V57.7056ZM63.1294 57.7056H58.495V62.3398H63.1294V57.7056ZM77.0328 57.7056H72.3984V62.3398H77.0328V57.7056ZM81.6672 57.7056H77.0328V62.3398H81.6672V57.7056ZM86.3016 57.7056H81.6672V62.3398H86.3016V57.7056ZM109.474 57.7056H104.839V62.3398H109.474V57.7056ZM114.108 57.7056H109.474V62.3398H114.108V57.7056ZM128.011 57.7056H123.377V62.3398H128.011V57.7056ZM12.1511 62.34H7.51672V66.9744H12.1511V62.34ZM16.7855 62.34H12.1511V66.9744H16.7855V62.34ZM39.9576 62.34H35.3232V66.9744H39.9576V62.34ZM44.592 62.34H39.9576V66.9744H44.592V62.34ZM49.2264 62.34H44.592V66.9744H49.2264V62.34ZM63.1294 62.34H58.495V66.9744H63.1294V62.34ZM67.7638 62.34H63.1294V66.9744H67.7638V62.34ZM72.3984 62.34H67.764V66.9744H72.3984V62.34ZM77.0328 62.34H72.3984V66.9744H77.0328V62.34ZM100.205 62.34H95.5702V66.9744H100.205V62.34Z" fill="#121212"/>
<path d="M104.839 62.34H100.205V66.9744H104.839V62.34ZM114.108 62.34H109.474V66.9744H114.108V62.34ZM118.743 62.34H114.108V66.9744H118.743V62.34ZM141.915 62.34H137.28V66.9744H141.915V62.34ZM26.0546 66.9744H21.4202V71.6088H26.0546V66.9744Z" fill="#121212"/>
<path d="M30.6886 66.9744H26.0542V71.6088H30.6886V66.9744ZM35.323 66.9744H30.6886V71.6088H35.323V66.9744ZM49.2264 66.9744H44.592V71.6088H49.2264V66.9744ZM53.8608 66.9744H49.2264V71.6088H53.8608V66.9744ZM63.1294 66.9744H58.495V71.6088H63.1294V66.9744ZM67.7639 66.9744H63.1294V71.6088H67.7639V66.9744ZM72.3984 66.9744H67.764V71.6088H72.3984V66.9744ZM77.0328 66.9744H72.3984V71.6088H77.0328V66.9744ZM90.9359 66.9744H86.3015V71.6088H90.9359V66.9744ZM95.5703 66.9744H90.9359V71.6088H95.5703V66.9744ZM100.205 66.9744H95.5703V71.6088H100.205V66.9744Z" fill="#121212"/>
<path d="M104.839 66.9744H100.205V71.6088H104.839V66.9744ZM114.108 66.9744H109.474V71.6088H114.108V66.9744ZM118.742 66.9744H114.108V71.6088H118.742V66.9744Z" fill="#121212"/>
<path d="M123.377 66.9744H118.742V71.6088H123.377V66.9744ZM137.28 66.9744H132.645V71.6088H137.28V66.9744ZM141.914 66.9744H137.28V71.6088H141.914V66.9744ZM12.1511 71.6086H7.51672V76.2431H12.1511V71.6086ZM16.7855 71.6086H12.1511V76.2431H16.7855V71.6086ZM21.4199 71.6086H16.7857V76.2431H21.4198V71.6086H21.4199ZM26.0545 71.6086H21.4201V76.2431H26.0545V71.6086ZM39.9576 71.6086H35.3232V76.2431H39.9576V71.6086ZM44.592 71.6086H39.9576V76.2431H44.592V71.6086ZM49.2264 71.6086H44.592V76.2431H49.2264V71.6086ZM53.8608 71.6086H49.2264V76.2431H53.8608V71.6086Z" fill="#121212"/>
<path d="M58.495 71.6086H53.8606V76.2431H58.495V71.6086ZM63.1294 71.6086H58.495V76.2431H63.1294V71.6086ZM67.7638 71.6086H63.1294V76.2431H67.7638V71.6086ZM72.3984 71.6086H67.764V76.2431H72.3984V71.6086ZM77.0328 71.6086H72.3984V76.2431H77.0328V71.6086ZM81.6672 71.6086H77.0328V76.2431H81.6672V71.6086ZM86.3016 71.6086H81.6672V76.2431H86.3016V71.6086Z" fill="#121212"/>
<path d="M90.9358 71.6086H86.3014V76.2431H90.9358V71.6086ZM109.474 71.6086H104.839V76.2431H109.474V71.6086ZM128.011 71.6086H123.377V76.2431H128.011V71.6086ZM132.645 71.6086H128.011V76.2431H132.645V71.6086ZM12.1511 76.2432H7.51672V80.8776H12.1511V76.2432ZM16.7855 76.2432H12.1511V80.8776H16.7855V76.2432ZM21.4199 76.2432H16.7857V80.8776H21.4198V76.2432H21.4199ZM26.0545 76.2432H21.4201V80.8776H26.0545V76.2432ZM35.323 76.2432H30.6886V80.8776H35.323V76.2432ZM49.2264 76.2432H44.592V80.8776H49.2264V76.2432ZM53.8608 76.2432H49.2264V80.8776H53.8608V76.2432ZM72.3984 76.2432H67.764V80.8776H72.3984V76.2432ZM77.0328 76.2432H72.3984V80.8776H77.0328V76.2432ZM86.3016 76.2432H81.6672V80.8776H86.3016V76.2432ZM95.5702 76.2432H90.9358V80.8776H95.5702V76.2432ZM100.205 76.2432H95.5702V80.8776H100.205V76.2432ZM109.474 76.2432H104.839V80.8776H109.474V76.2432ZM114.108 76.2432H109.474V80.8776H114.108V76.2432ZM118.742 76.2432H114.108V80.8776H118.742V76.2432ZM132.645 76.2432H128.011V80.8776H132.645V76.2432ZM141.914 76.2432H137.28V80.8776H141.914V76.2432Z" fill="#121212"/>
<path d="M12.1511 80.8775H7.51672V85.5119H12.1511V80.8775ZM26.0545 80.8775H21.4201V85.5119H26.0545V80.8775Z" fill="#121212"/>
<path d="M30.6886 80.8775H26.0542V85.5119H30.6886V80.8775ZM35.323 80.8775H30.6886V85.5119H35.323V80.8775ZM39.9576 80.8775H35.3232V85.5119H39.9576V80.8775ZM44.592 80.8775H39.9576V85.5119H44.592V80.8775ZM53.8608 80.8775H49.2264V85.5119H53.8608V80.8775ZM67.7638 80.8775H63.1294V85.5119H67.7638V80.8775ZM77.0328 80.8775H72.3984V85.5119H77.0328V80.8775ZM81.6672 80.8775H77.0328V85.5119H81.6672V80.8775ZM90.9358 80.8775H86.3014V85.5119H90.9358V80.8775ZM100.205 80.8775H95.5702V85.5119H100.205V80.8775ZM128.011 80.8775H123.377V85.5119H128.011V80.8775ZM132.645 80.8775H128.011V85.5119H132.645V80.8775ZM12.1511 85.512H7.51672V90.1465H12.1511V85.512ZM16.7855 85.512H12.1511V90.1465H16.7855V85.512ZM21.4199 85.512H16.7857V90.1465H21.4198V85.512H21.4199ZM26.0545 85.512H21.4201V90.1465H26.0545V85.512ZM35.323 85.512H30.6886V90.1465H35.323V85.512ZM44.592 85.512H39.9576V90.1465H44.592V85.512ZM49.2264 85.512H44.592V90.1465H49.2264V85.512ZM63.1294 85.512H58.495V90.1465H63.1294V85.512ZM86.3016 85.512H81.6672V90.1465H86.3016V85.512Z" fill="#121212"/>
<path d="M90.9358 85.5121H86.3014V90.1465H90.9358V85.5121ZM95.5702 85.5121H90.9358V90.1465H95.5702V85.5121ZM100.205 85.5121H95.5702V90.1465H100.205V85.5121ZM114.108 85.5121H109.474V90.1465H114.108V85.5121ZM118.742 85.5121H114.108V90.1465H118.742V85.5121Z" fill="#121212"/>
<path d="M123.377 85.5121H118.742V90.1465H123.377V85.5121ZM132.645 85.5121H128.011V90.1465H132.645V85.5121ZM137.28 85.5121H132.645V90.1465H137.28V85.5121ZM141.914 85.5121H137.28V90.1465H141.914V85.5121ZM12.1511 90.1463H7.51672V94.7807H12.1511V90.1463ZM16.7855 90.1463H12.1511V94.7807H16.7855V90.1463ZM39.9576 90.1463H35.3232V94.7807H39.9576V90.1463ZM44.592 90.1463H39.9576V94.7807H44.592V90.1463ZM53.8608 90.1463H49.2264V94.7807H53.8608V90.1463Z" fill="#121212"/>
<path d="M58.495 90.1463H53.8606V94.7807H58.495V90.1463ZM72.3984 90.1463H67.764V94.7807H72.3984V90.1463ZM77.0328 90.1463H72.3984V94.7807H77.0328V90.1463ZM86.3016 90.1463H81.6672V94.7807H86.3016V90.1463ZM95.5703 90.1463H90.9358V94.7807H95.5703V90.1463ZM100.205 90.1463H95.5703V94.7807H100.205V90.1463Z" fill="#121212"/>
<path d="M104.839 90.1463H100.205V94.7807H104.839V90.1463ZM123.377 90.1463H118.742V94.7807H123.377V90.1463ZM128.011 90.1463H123.377V94.7807H128.011V90.1463ZM141.914 90.1463H137.28V94.7807H141.914V90.1463ZM12.1511 94.7809H7.51672V99.4153H12.1511V94.7809ZM21.4199 94.7809H16.7857V99.4153H21.4198V94.7809H21.4199ZM26.0545 94.7809H21.4201V99.4153H26.0545V94.7809ZM35.323 94.7809H30.6886V99.4153H35.323V94.7809ZM53.8608 94.7809H49.2264V99.4153H53.8608V94.7809Z" fill="#121212"/>
<path d="M58.495 94.7809H53.8606V99.4153H58.495V94.7809ZM63.1294 94.7809H58.495V99.4153H63.1294V94.7809ZM67.7638 94.7809H63.1294V99.4153H67.7638V94.7809ZM77.0328 94.7809H72.3984V99.4153H77.0328V94.7809ZM81.6672 94.7809H77.0328V99.4153H81.6672V94.7809ZM86.3016 94.7809H81.6672V99.4153H86.3016V94.7809ZM104.839 94.7809H100.205V99.4153H104.839V94.7809ZM118.742 94.7809H114.108V99.4153H118.742V94.7809ZM12.1511 99.4151H7.51672V104.049H12.1511V99.4151ZM21.4199 99.4151H16.7857V104.049H21.4198V99.4151H21.4199ZM35.323 99.4151H30.6886V104.049H35.323V99.4151ZM39.9576 99.4151H35.3232V104.049H39.9576V99.4151ZM44.592 99.4151H39.9576V104.049H44.592V99.4151Z" fill="#121212"/>
<path d="M58.495 99.4151H53.8606V104.049H58.495V99.4151ZM63.1294 99.4151H58.495V104.049H63.1294V99.4151ZM86.3016 99.4151H81.6672V104.049H86.3016V99.4151ZM95.5702 99.4151H90.9358V104.049H95.5702V99.4151ZM104.839 99.4151H100.205V104.049H104.839V99.4151ZM109.474 99.4151H104.839V104.049H109.474V99.4151ZM114.108 99.4151H109.474V104.049H114.108V99.4151ZM118.742 99.4151H114.108V104.049H118.742V99.4151Z" fill="#121212"/>
<path d="M123.377 99.4151H118.742V104.049H123.377V99.4151ZM132.645 99.4151H128.011V104.049H132.645V99.4151ZM137.28 99.4151H132.645V104.049H137.28V99.4151ZM141.914 99.4151H137.28V104.049H141.914V99.4151ZM49.2263 104.049H44.5919V108.684H49.2263V104.049ZM53.8607 104.049H49.2263V108.684H53.8607V104.049ZM72.3983 104.049H67.7639V108.684H72.3983V104.049ZM86.3016 104.049H81.6672V108.684H86.3016V104.049Z" fill="#121212"/>
<path d="M90.9358 104.049H86.3014V108.684H90.9358V104.049ZM95.5702 104.049H90.9358V108.684H95.5702V104.049ZM100.205 104.049H95.5702V108.684H100.205V104.049Z" fill="#121212"/>
<path d="M104.839 104.049H100.205V108.684H104.839V104.049ZM123.377 104.049H118.742V108.684H123.377V104.049ZM128.011 104.049H123.377V108.684H128.011V104.049ZM58.495 108.684H53.8606V113.318H58.495V108.684ZM67.7638 108.684H63.1294V113.318H67.7638V108.684ZM72.3984 108.684H67.764V113.318H72.3984V108.684ZM77.0328 108.684H72.3984V113.318H77.0328V108.684ZM81.6672 108.684H77.0328V113.318H81.6672V108.684ZM86.3016 108.684H81.6672V113.318H86.3016V108.684Z" fill="#121212"/>
<path d="M90.9358 108.684H86.3014V113.318H90.9358V108.684ZM100.205 108.684H95.5702V113.318H100.205V108.684Z" fill="#121212"/>
<path d="M104.839 108.684H100.205V113.318H104.839V108.684ZM114.108 108.684H109.474V113.318H114.108V108.684ZM123.377 108.684H118.742V113.318H123.377V108.684ZM128.011 108.684H123.377V113.318H128.011V108.684ZM132.645 108.684H128.011V113.318H132.645V108.684ZM67.7638 113.318H63.1294V117.953H67.7638V113.318ZM72.3984 113.318H67.764V117.953H72.3984V113.318ZM90.9358 113.318H86.3014V117.953H90.9358V113.318ZM95.5702 113.318H90.9358V117.953H95.5702V113.318ZM100.205 113.318H95.5702V117.953H100.205V113.318Z" fill="#121212"/>
<path d="M104.839 113.318H100.205V117.953H104.839V113.318ZM123.377 113.318H118.742V117.953H123.377V113.318ZM137.28 113.318H132.645V117.953H137.28V113.318ZM141.914 113.318H137.28V117.953H141.914V113.318ZM53.8607 117.953H49.2263V122.587H53.8607V117.953ZM72.3983 117.953H67.7639V122.587H72.3983V117.953ZM81.6672 117.953H77.0328V122.587H81.6672V117.953ZM86.3016 117.953H81.6672V122.587H86.3016V117.953Z" fill="#121212"/>
<path d="M90.9358 117.953H86.3014V122.587H90.9358V117.953ZM100.205 117.953H95.5702V122.587H100.205V117.953Z" fill="#121212"/>
<path d="M104.839 117.953H100.205V122.587H104.839V117.953ZM109.474 117.953H104.839V122.587H109.474V117.953ZM114.108 117.953H109.474V122.587H114.108V117.953ZM118.742 117.953H114.108V122.587H118.742V117.953Z" fill="#121212"/>
<path d="M123.377 117.953H118.742V122.587H123.377V117.953ZM128.011 117.953H123.377V122.587H128.011V117.953ZM137.28 117.953H132.645V122.587H137.28V117.953ZM53.8607 122.587H49.2263V127.221H53.8607V122.587Z" fill="#121212"/>
<path d="M58.4949 122.587H53.8605V127.222H58.4949V122.587ZM72.3983 122.587H67.7639V127.222H72.3983V122.587ZM86.3016 122.587H81.6672V127.222H86.3016V122.587ZM95.5702 122.587H90.9358V127.222H95.5702V122.587ZM100.205 122.587H95.5702V127.222H100.205V122.587ZM109.474 122.587H104.839V127.222H109.474V122.587ZM128.011 122.587H123.377V127.222H128.011V122.587ZM132.645 122.587H128.011V127.222H132.645V122.587ZM137.28 122.587H132.645V127.222H137.28V122.587ZM53.8607 127.222H49.2263V131.856H53.8607V127.222Z" fill="#121212"/>
<path d="M58.495 127.222H53.8606V131.856H58.495V127.222ZM63.1294 127.222H58.495V131.856H63.1294V127.222ZM67.7638 127.222H63.1294V131.856H67.7638V127.222ZM77.0328 127.222H72.3984V131.856H77.0328V127.222ZM95.5702 127.222H90.9358V131.856H95.5702V127.222ZM100.205 127.222H95.5702V131.856H100.205V127.222ZM109.474 127.222H104.839V131.856H109.474V127.222ZM114.108 127.222H109.474V131.856H114.108V127.222ZM118.742 127.222H114.108V131.856H118.742V127.222Z" fill="#121212"/>
<path d="M123.377 127.221H118.742V131.856H123.377V127.221ZM128.011 127.221H123.377V131.856H128.011V127.221ZM132.645 127.221H128.011V131.856H132.645V127.221ZM137.28 127.221H132.645V131.856H137.28V127.221ZM53.8608 131.856H49.2264V136.49H53.8608V131.856ZM67.7638 131.856H63.1294V136.49H67.7638V131.856ZM81.6672 131.856H77.0328V136.49H81.6672V131.856ZM109.474 131.856H104.839V136.49H109.474V131.856ZM118.742 131.856H114.108V136.49H118.742V131.856ZM128.011 131.856H123.377V136.49H128.011V131.856ZM132.645 131.856H128.011V136.49H132.645V131.856ZM141.914 131.856H137.28V136.49H141.914V131.856ZM49.2264 136.49H44.592V141.125H49.2264V136.49ZM53.8608 136.49H49.2264V141.125H53.8608V136.49ZM63.1294 136.49H58.495V141.125H63.1294V136.49ZM67.7638 136.49H63.1294V141.125H67.7638V136.49ZM77.0328 136.49H72.3984V141.125H77.0328V136.49ZM86.3016 136.49H81.6672V141.125H86.3016V136.49ZM95.5702 136.49H90.9358V141.125H95.5702V136.49ZM100.205 136.49H95.5702V141.125H100.205V136.49ZM109.474 136.49H104.839V141.125H109.474V136.49ZM118.742 136.49H114.108V141.125H118.742V136.49ZM132.645 136.49H128.011V141.125H132.645V136.49ZM35.0914 6.72716H7.51672V39.168H39.9576V6.72716H35.0914ZM35.0914 34.3018H12.3829V11.5933H35.0914V34.3018ZM137.048 6.72716H109.474V39.168H141.914V6.72716H137.048ZM137.048 34.3018H114.34V11.5933H137.048V34.3018ZM35.0914 108.684H7.51672V141.125H39.9576V108.684H35.0914ZM35.0914 136.259H12.3829V113.55H35.0914V136.259Z" fill="#121212"/>
<path d="M30.6888 15.996H16.7858V29.8992H30.6888V15.996ZM132.645 15.996H118.742V29.8992H132.645V15.996ZM30.6888 117.953H16.7858V131.856H30.6888V117.953Z" fill="#121212"/>
</g>
<defs>
<clipPath id="clip0_780_7466">
<rect width="134.545" height="134.545" fill="white" transform="translate(7.51672 6.72716)"/>
</clipPath>
</defs>
</svg>
