<svg width="167" height="38" viewBox="0 0 167 38" fill="none" xmlns="http://www.w3.org/2000/svg">
<path d="M28.699 31.2581H19.4351V19.435H31.2581V28.699C31.2581 30.1123 30.1123 31.2581 28.699 31.2581Z" fill="#644AE2"/>
<path d="M31.2581 18.6161H19.4351V6.74193H28.699C30.1123 6.74193 31.2581 7.88767 31.2581 9.30102V18.6161Z" fill="#644AE2"/>
<path d="M18.6161 18.6161V6.74193H9.30104C7.88769 6.74193 6.74194 7.88767 6.74194 9.30102V18.6161H18.6161Z" fill="#644AE2"/>
<path d="M6.74194 19.435V28.699C6.74194 30.1123 7.88769 31.2581 9.30104 31.2581H18.6161V19.435H6.74194Z" fill="#644AE2"/>
<path fill-rule="evenodd" clip-rule="evenodd" d="M19.4654 12.7238C19.1848 12.9565 18.9319 13.2251 18.7098 13.5035C18.4766 13.3872 18.2297 13.2887 17.9751 13.2129C17.0131 12.9262 15.5517 12.8812 14.5142 14.041C13.8184 14.8187 13.5676 15.7674 13.8575 16.723C14.103 17.5325 14.6851 18.1588 15.1819 18.5997C15.7051 19.064 16.3191 19.4809 16.8533 19.8283C17.0331 19.9451 17.2001 20.052 17.3556 20.1515L17.3557 20.1516C17.6991 20.3712 17.9867 20.5552 18.2325 20.7329L18.3705 20.8326C16.1827 21.6696 13.9313 22.0521 12.6623 20.7599C12.6021 20.6986 12.4936 20.7266 12.4768 20.8109L12.2861 21.7662C12.2766 21.814 12.2345 21.8485 12.1857 21.8485H11.0812C10.999 21.8485 10.9506 21.9394 11 22.0051C11.9733 23.2976 14.4304 25.0242 17.3793 22.616C21.2167 19.4821 23.807 20.7292 24.3826 21.8485C24.8008 22.6617 24.5473 24.2221 24.3216 25.0927C24.2985 25.1815 24.3934 25.2564 24.4727 25.2103C24.7803 25.0316 25.0271 24.8695 25.3073 24.683C25.3564 24.6503 25.4229 24.6656 25.4526 24.7165C25.5914 24.9543 25.735 25.1988 25.9192 25.5004C25.9606 25.5682 26.0599 25.5647 26.0961 25.494C26.834 24.0501 27.5197 22.273 26.749 20.7932C26.0528 19.4565 23.9265 18.7263 21.5519 19.4674C21.8318 19.2114 22.1009 18.9455 22.3577 18.6758C22.9504 18.0532 23.7039 17.2223 24.1203 16.3261C24.3375 15.8585 24.5094 15.2785 24.4538 14.6382C24.3951 13.9632 24.0952 13.3592 23.6022 12.8668C22.978 12.2433 22.2066 11.8856 21.353 11.9297C20.5572 11.9708 19.9152 12.351 19.4654 12.7238ZM18.0882 18.9187C18.4507 19.1507 18.7918 19.3689 19.072 19.5714C19.8618 19.0849 20.6224 18.4202 21.3198 17.6876C22.5258 16.4209 23.6926 14.9826 22.5894 13.8807C21.5716 12.8641 20.5606 13.5049 19.8698 14.3481C19.4892 14.8125 19.2058 15.3384 19.072 15.6825C18.9125 15.3297 18.4704 14.9585 17.9336 14.7218C17.1594 14.3805 16.1882 14.3191 15.5823 14.9964C14.2631 16.4712 16.4067 17.8427 18.0882 18.9187Z" fill="#FAFAFA"/>
<path d="M42.2511 25.9626C43.3886 25.9626 44.232 25.737 44.7811 25.2859C45.3303 24.8152 45.6049 24.2366 45.6049 23.5502C45.6049 22.9422 45.3891 22.4519 44.9576 22.0792C44.5458 21.687 43.9084 21.3634 43.0454 21.1084L41.1331 20.52C40.1525 20.1866 39.2895 19.8139 38.5442 19.4021C37.8185 18.9902 37.2498 18.4606 36.8379 17.8134C36.4456 17.1466 36.2495 16.3326 36.2495 15.3716C36.2495 13.783 36.8379 12.5277 38.0147 11.6059C39.2111 10.6841 40.8389 10.2232 42.8983 10.2232C43.9966 10.2232 44.9674 10.3409 45.8108 10.5763C46.6738 10.792 47.3504 11.096 47.8407 11.4883C48.3507 11.8805 48.6056 12.3414 48.6056 12.871C48.6056 13.2436 48.5076 13.577 48.3114 13.8712C48.1349 14.1458 47.9094 14.3714 47.6348 14.5479C47.1837 14.2144 46.5659 13.9301 45.7814 13.6947C44.9969 13.4397 44.1437 13.3123 43.2219 13.3123C42.202 13.3123 41.4175 13.4986 40.8684 13.8712C40.3192 14.2439 40.0446 14.744 40.0446 15.3716C40.0446 15.8815 40.2309 16.2934 40.6036 16.6072C40.9958 16.921 41.5842 17.1956 42.3687 17.431L44.0751 17.9311C45.7618 18.441 47.0758 19.1373 48.0173 20.0199C48.9587 20.8828 49.4294 22.0694 49.4294 23.5796C49.4294 25.1879 48.8116 26.4921 47.576 27.4924C46.36 28.4926 44.6144 28.9928 42.3393 28.9928C41.1429 28.9928 40.0838 28.8653 39.162 28.6103C38.2402 28.3554 37.5047 28.0023 36.9556 27.5512C36.426 27.1001 36.1613 26.5902 36.1613 26.0214C36.1613 25.5899 36.2985 25.2173 36.5731 24.9035C36.8477 24.5897 37.1419 24.3543 37.4557 24.1974C37.9656 24.6289 38.6227 25.031 39.4268 25.4036C40.2309 25.7763 41.1724 25.9626 42.2511 25.9626Z" fill="#644AE2"/>
<path d="M65.3492 22.6088H61.7306V19.961C61.7306 18.9608 61.456 18.2351 60.9068 17.784C60.3773 17.3329 59.7006 17.1073 58.8769 17.1073C58.2101 17.1073 57.5923 17.2348 57.0235 17.4898C56.4743 17.7448 55.9938 18.039 55.5819 18.3724L55.376 15.4304C55.8271 15.1559 56.4057 14.8911 57.1117 14.6361C57.8178 14.3615 58.6121 14.2243 59.4947 14.2243C61.2599 14.2243 62.672 14.6852 63.7311 15.607C64.8098 16.5288 65.3492 17.9213 65.3492 19.7845V22.6088ZM52.4929 20.7848H56.1115V28.4926C55.9546 28.5515 55.729 28.6005 55.4348 28.6397C55.1406 28.6986 54.817 28.728 54.464 28.728C53.7972 28.728 53.297 28.6103 52.9636 28.375C52.6498 28.12 52.4929 27.6787 52.4929 27.0511V20.7848ZM61.7306 20.8142H65.3492V28.4926C65.1923 28.5515 64.9569 28.6005 64.6431 28.6397C64.3489 28.6986 64.0351 28.728 63.7017 28.728C63.0152 28.728 62.5151 28.6103 62.2013 28.375C61.8875 28.12 61.7306 27.6787 61.7306 27.0511V20.8142ZM56.1115 22.6382H52.4929V9.4289C52.6498 9.38967 52.8754 9.34064 53.1695 9.2818C53.4637 9.22296 53.7874 9.19354 54.1404 9.19354C54.8268 9.19354 55.327 9.32103 55.6408 9.57599C55.9546 9.81135 56.1115 10.2428 56.1115 10.8704V22.6382Z" fill="#644AE2"/>
<path d="M82.7767 21.5791C82.7767 23.0893 82.4825 24.4033 81.8941 25.5213C81.3057 26.6196 80.4722 27.4728 79.3935 28.0808C78.3344 28.6692 77.0791 28.9634 75.6278 28.9634C74.1764 28.9634 72.9114 28.6692 71.8327 28.0808C70.754 27.4728 69.9106 26.6196 69.3026 25.5213C68.7142 24.423 68.42 23.1089 68.42 21.5791C68.42 20.0689 68.724 18.7646 69.332 17.6663C69.94 16.568 70.7834 15.7246 71.8621 15.1363C72.9408 14.5283 74.196 14.2243 75.6278 14.2243C77.0595 14.2243 78.3049 14.5283 79.364 15.1363C80.4427 15.7246 81.2763 16.5778 81.8647 17.6957C82.4727 18.7941 82.7767 20.0885 82.7767 21.5791ZM75.6278 17.1073C74.5491 17.1073 73.6959 17.4996 73.0683 18.2841C72.4603 19.0686 72.1563 20.167 72.1563 21.5791C72.1563 23.0304 72.4603 24.1484 73.0683 24.9329C73.6763 25.6978 74.5295 26.0803 75.6278 26.0803C76.7065 26.0803 77.5498 25.688 78.1578 24.9035C78.7658 24.119 79.0698 23.0108 79.0698 21.5791C79.0698 20.1866 78.7658 19.0981 78.1578 18.3135C77.5498 17.5094 76.7065 17.1073 75.6278 17.1073Z" fill="#644AE2"/>
<path d="M95.0586 19.4315C94.8036 20.5102 94.4996 21.6085 94.1466 22.7264C93.7935 23.8248 93.4601 24.8643 93.1463 25.8449C92.8325 26.8059 92.5579 27.6003 92.3226 28.2279C92.1264 28.4044 91.8617 28.5417 91.5282 28.6397C91.1948 28.7378 90.783 28.7868 90.2926 28.7868C89.7631 28.7868 89.2826 28.7084 88.8511 28.5515C88.4392 28.375 88.1548 28.1298 87.9979 27.816C87.8214 27.4237 87.6155 26.8648 87.3801 26.1391C87.1448 25.3938 86.8996 24.5504 86.6446 23.609C86.4093 22.6676 86.1641 21.687 85.9091 20.6671C85.6738 19.6472 85.4482 18.6568 85.2325 17.6957C85.0364 16.7347 84.8697 15.8815 84.7324 15.1363C84.9481 14.9205 85.2129 14.7342 85.5267 14.5773C85.8601 14.4204 86.2328 14.3419 86.6446 14.3419C87.1742 14.3419 87.5959 14.4694 87.9097 14.7244C88.2235 14.9794 88.4196 15.401 88.4981 15.9894C88.6942 17.127 88.8805 18.2057 89.057 19.2255C89.2335 20.2258 89.4101 21.1378 89.5866 21.9615C89.7631 22.7853 89.9102 23.4914 90.0279 24.0797C90.1651 24.6485 90.2632 25.08 90.3221 25.3742H90.4397C90.577 24.9231 90.783 24.2072 91.0575 23.2266C91.3321 22.2459 91.6557 21.128 92.0284 19.8728C92.4206 18.5979 92.8031 17.3035 93.1757 15.9894C93.4503 15.8521 93.7347 15.7443 94.0289 15.6658C94.3427 15.5677 94.6957 15.5187 95.088 15.5187C95.5979 15.5187 96.0294 15.607 96.3824 15.7835C96.7355 15.9404 96.9708 16.1954 97.0885 16.5484C97.4808 17.8036 97.8436 19.0294 98.177 20.2258C98.5301 21.4026 98.8341 22.4519 99.089 23.3737C99.3636 24.2759 99.5597 24.9525 99.6774 25.4036H99.8245C100.158 23.7757 100.511 22.0498 100.884 20.2258C101.256 18.4018 101.57 16.5876 101.825 14.7832C102.315 14.489 102.855 14.3419 103.443 14.3419C103.953 14.3419 104.365 14.4596 104.679 14.695C104.993 14.9107 105.149 15.2735 105.149 15.7835C105.149 16.0581 105.091 16.4993 104.973 17.1073C104.875 17.7154 104.728 18.4214 104.532 19.2255C104.355 20.0297 104.149 20.8828 103.914 21.785C103.678 22.6872 103.433 23.56 103.178 24.4034C102.943 25.2467 102.717 26.0018 102.502 26.6686C102.286 27.3355 102.1 27.8552 101.943 28.2279C101.766 28.3848 101.482 28.5123 101.09 28.6103C100.697 28.728 100.266 28.7868 99.7951 28.7868C98.5791 28.7868 97.873 28.4926 97.6769 27.9043C97.4415 27.3159 97.167 26.5608 96.8531 25.639C96.559 24.7172 96.255 23.7169 95.9412 22.6382C95.647 21.5595 95.3528 20.4906 95.0586 19.4315Z" fill="#644AE2"/>
<path d="M108.232 20.7848L111.851 20.9613V28.4926C111.694 28.5515 111.468 28.6005 111.174 28.6397C110.88 28.6986 110.556 28.728 110.203 28.728C109.536 28.728 109.036 28.6103 108.703 28.375C108.389 28.12 108.232 27.6787 108.232 27.0511V20.7848ZM111.851 22.8147L108.232 22.6382V9.4289C108.37 9.38967 108.585 9.34064 108.879 9.2818C109.193 9.22296 109.517 9.19354 109.85 9.19354C110.556 9.19354 111.066 9.32103 111.38 9.57599C111.694 9.81135 111.851 10.2428 111.851 10.8704V22.8147Z" fill="#644AE2"/>
<path d="M129.434 21.5791C129.434 23.0893 129.14 24.4033 128.551 25.5213C127.963 26.6196 127.129 27.4728 126.051 28.0808C124.992 28.6692 123.736 28.9634 122.285 28.9634C120.834 28.9634 119.569 28.6692 118.49 28.0808C117.411 27.4728 116.568 26.6196 115.96 25.5213C115.371 24.423 115.077 23.1089 115.077 21.5791C115.077 20.0689 115.381 18.7646 115.989 17.6663C116.597 16.568 117.441 15.7246 118.519 15.1363C119.598 14.5283 120.853 14.2243 122.285 14.2243C123.717 14.2243 124.962 14.5283 126.021 15.1363C127.1 15.7246 127.934 16.5778 128.522 17.6957C129.13 18.7941 129.434 20.0885 129.434 21.5791ZM122.285 17.1073C121.206 17.1073 120.353 17.4996 119.726 18.2841C119.118 19.0686 118.814 20.167 118.814 21.5791C118.814 23.0304 119.118 24.1484 119.726 24.9329C120.334 25.6978 121.187 26.0803 122.285 26.0803C123.364 26.0803 124.207 25.688 124.815 24.9035C125.423 24.119 125.727 23.0108 125.727 21.5791C125.727 20.1866 125.423 19.0981 124.815 18.3135C124.207 17.5094 123.364 17.1073 122.285 17.1073Z" fill="#644AE2"/>
<path d="M142.897 14.3419C143.407 14.3419 143.829 14.4596 144.162 14.695C144.496 14.9303 144.663 15.303 144.663 15.8129C144.663 16.1267 144.555 16.6563 144.339 17.4015C144.143 18.1272 143.878 18.9804 143.545 19.961C143.211 20.9417 142.839 21.9517 142.427 22.9912C142.034 24.0307 141.632 25.0212 141.221 25.9626C140.809 26.8844 140.436 27.6591 140.103 28.2867C139.926 28.424 139.642 28.5417 139.249 28.6397C138.877 28.7378 138.455 28.7868 137.984 28.7868C137.435 28.7868 136.965 28.7084 136.572 28.5515C136.18 28.4142 135.905 28.1886 135.749 27.8748C135.533 27.463 135.258 26.8844 134.925 26.1391C134.611 25.3938 134.268 24.5406 133.895 23.5796C133.522 22.6186 133.15 21.6281 132.777 20.6083C132.405 19.5884 132.061 18.6077 131.747 17.6663C131.453 16.7249 131.208 15.8913 131.012 15.1657C131.228 14.9303 131.502 14.7342 131.836 14.5773C132.189 14.4204 132.552 14.3419 132.924 14.3419C133.434 14.3419 133.846 14.4596 134.16 14.695C134.493 14.9107 134.738 15.3128 134.895 15.9012L136.396 20.8142C136.553 21.3241 136.729 21.8831 136.925 22.4911C137.141 23.0795 137.337 23.6483 137.514 24.1974C137.69 24.727 137.837 25.1781 137.955 25.5507H138.073C138.661 23.8248 139.23 22.0302 139.779 20.167C140.348 18.3037 140.838 16.4895 141.25 14.7244C141.721 14.4694 142.27 14.3419 142.897 14.3419Z" fill="#644AE2"/>
<path d="M148.802 23.4325L148.655 20.9024L156.54 19.7257C156.481 18.9804 156.197 18.3332 155.687 17.784C155.177 17.2348 154.431 16.9603 153.451 16.9603C152.45 16.9603 151.617 17.3133 150.95 18.0194C150.283 18.7058 149.94 19.6963 149.92 20.9907L150.009 22.5205C150.185 23.7757 150.666 24.6975 151.45 25.2859C152.254 25.8743 153.264 26.1685 154.48 26.1685C155.304 26.1685 156.069 26.0508 156.775 25.8155C157.481 25.5605 158.04 25.2859 158.452 24.9917C158.727 25.1683 158.942 25.3938 159.099 25.6684C159.276 25.9234 159.364 26.2077 159.364 26.5215C159.364 27.0315 159.138 27.4728 158.687 27.8454C158.236 28.1984 157.628 28.473 156.863 28.6692C156.098 28.8653 155.226 28.9634 154.245 28.9634C152.735 28.9634 151.391 28.6888 150.215 28.1396C149.057 27.5708 148.145 26.7275 147.479 25.6095C146.831 24.4916 146.508 23.0991 146.508 21.432C146.508 20.2356 146.694 19.1863 147.067 18.2841C147.439 17.3819 147.939 16.6366 148.567 16.0483C149.214 15.4403 149.96 14.9892 150.803 14.695C151.646 14.3812 152.529 14.2243 153.451 14.2243C154.745 14.2243 155.873 14.489 156.834 15.0186C157.815 15.5285 158.579 16.2444 159.129 17.1662C159.697 18.088 159.982 19.1471 159.982 20.3435C159.982 20.8926 159.835 21.3045 159.54 21.5791C159.266 21.8341 158.874 21.991 158.364 22.0498L148.802 23.4325Z" fill="#644AE2"/>
</svg>
