<svg width="26" height="26" viewBox="0 0 26 26" fill="none" xmlns="http://www.w3.org/2000/svg">
<path d="M22.699 25.2581H13.4351V13.435H25.2581V22.699C25.2581 24.1123 24.1123 25.2581 22.699 25.2581Z" fill="#644AE2"/>
<path d="M25.2581 12.6161H13.4351V0.741928H22.699C24.1123 0.741928 25.2581 1.88767 25.2581 3.30102V12.6161Z" fill="#644AE2"/>
<path d="M12.6161 12.6161V0.741928H3.30104C1.88769 0.741928 0.741943 1.88767 0.741943 3.30102V12.6161H12.6161Z" fill="#644AE2"/>
<path d="M0.741943 13.435V22.699C0.741943 24.1123 1.88769 25.2581 3.30104 25.2581H12.6161V13.435H0.741943Z" fill="#644AE2"/>
<path fill-rule="evenodd" clip-rule="evenodd" d="M13.4654 6.72385C13.1848 6.95654 12.9319 7.22506 12.7098 7.50348C12.4766 7.38724 12.2297 7.28872 11.9751 7.21287C11.0131 6.92624 9.55166 6.88116 8.51419 8.04097C7.81845 8.81875 7.56758 9.76744 7.85745 10.723C8.10303 11.5325 8.6851 12.1588 9.18195 12.5997C9.70508 13.064 10.3191 13.4809 10.8533 13.8283C11.0331 13.9451 11.2001 14.052 11.3556 14.1515L11.3557 14.1516C11.6991 14.3712 11.9867 14.5552 12.2325 14.7329L12.3705 14.8326C10.1827 15.6696 7.93129 16.0521 6.66231 14.7599C6.60208 14.6986 6.49364 14.7266 6.47681 14.8109L6.28611 15.7662C6.27655 15.814 6.23453 15.8485 6.18573 15.8485H5.08121C4.99902 15.8485 4.95058 15.9394 5.00002 16.0051C5.97333 17.2976 8.43045 19.0242 11.3793 16.616C15.2167 13.4821 17.807 14.7292 18.3826 15.8485C18.8008 16.6617 18.5473 18.2221 18.3216 19.0927C18.2985 19.1815 18.3934 19.2564 18.4727 19.2103C18.7803 19.0316 19.0271 18.8695 19.3073 18.683C19.3564 18.6503 19.4229 18.6656 19.4526 18.7165C19.5914 18.9543 19.735 19.1988 19.9192 19.5004C19.9606 19.5682 20.0599 19.5647 20.0961 19.494C20.834 18.0501 21.5197 16.273 20.749 14.7932C20.0528 13.4565 17.9265 12.7263 15.5519 13.4674C15.8318 13.2114 16.1009 12.9455 16.3577 12.6758C16.9504 12.0532 17.7039 11.2223 18.1203 10.3261C18.3375 9.85846 18.5094 9.27853 18.4538 8.63819C18.3951 7.96322 18.0952 7.35921 17.6022 6.86675C16.978 6.24325 16.2066 5.8856 15.353 5.92968C14.5572 5.97077 13.9152 6.35096 13.4654 6.72385ZM12.0882 12.9187C12.4507 13.1507 12.7918 13.3689 13.072 13.5714C13.8618 13.0849 14.6224 12.4202 15.3198 11.6876C16.5258 10.4209 17.6926 8.98256 16.5894 7.8807C15.5716 6.86409 14.5606 7.50486 13.8698 8.34806C13.4892 8.81253 13.2058 9.33842 13.072 9.68253C12.9125 9.32975 12.4704 8.95847 11.9336 8.7218C11.1594 8.38054 10.1882 8.31912 9.5823 8.99642C8.2631 10.4712 10.4067 11.8427 12.0882 12.9187Z" fill="#FAFAFA"/>
</svg>
