<svg width="1440" height="117" viewBox="0 0 1440 117" fill="none" xmlns="http://www.w3.org/2000/svg">
<path d="M3165 606L1548.69 0.120517L1548.37 0H-57.9635L-101.352 16.2536L-265.165 77.6457L-1675 606H3165ZM1628.62 34.3977H1502.48L1470.61 20.2762H1590.95L1628.62 34.3977ZM832.541 137.791L838.86 168.568H651.06L657.378 137.791H832.541ZM658.224 133.768L663.537 107.819H826.383L831.696 133.768H658.183H658.224ZM836.647 137.791H1011.49L1030.44 168.568H842.966L836.647 137.791ZM839.665 172.591L847.232 209.362H642.688L650.254 172.591H839.706H839.665ZM848.037 213.385L857.174 258.002H632.666L641.802 213.385H847.997H848.037ZM852.142 213.385H1058.01L1085.47 258.002H861.279L852.142 213.385ZM851.297 209.362L843.73 172.591H1032.86L1055.52 209.362H851.297ZM1037.61 172.591H1225.89L1263.65 209.362H1060.27L1037.61 172.591ZM1035.11 168.568L1016.16 137.791H1190.15L1221.75 168.568H1035.11ZM1013.7 133.768L997.723 107.819H1159.44L1186.09 133.768H1013.74H1013.7ZM1008.99 133.768H835.802L830.489 107.819H993.013L1008.99 133.768ZM829.643 103.796L825.095 81.7089H976.914L990.518 103.796H829.643ZM825.538 103.796H664.342L668.89 81.7089H821.03L825.578 103.796H825.538ZM660.236 103.796H499.361L512.966 81.7089H664.784L660.236 103.796ZM659.391 107.819L654.078 133.768H480.887L496.866 107.819H659.391ZM653.233 137.791L646.914 168.568H459.435L478.392 137.791H653.233ZM646.109 172.591L638.542 209.362H434.32L456.979 172.591H646.109ZM637.737 213.385L628.601 258.002H404.415L431.865 213.385H637.737ZM627.755 262.024L616.526 316.82H368.191L401.919 262.024H627.755ZM631.861 262.024H858.019L869.248 316.82H620.591L631.821 262.024H631.861ZM862.124 262.024H1087.96L1121.69 316.82H873.354L862.124 262.024ZM1092.71 262.024H1317.7L1373.93 316.82H1126.44L1092.71 262.024ZM1090.21 258.002L1062.76 213.385H1267.79L1313.55 258.002H1090.21ZM1273.55 213.385H1477.45L1541.52 258.002H1319.35L1273.59 213.385H1273.55ZM1269.4 209.362L1231.65 172.591H1418.77L1471.61 209.362H1269.4ZM1227.54 168.568L1195.95 137.791H1368.82L1413.01 168.568H1227.54ZM1191.84 133.768L1165.2 107.819H1325.75L1363.02 133.768H1191.8H1191.84ZM1161.09 103.796L1138.43 81.7089H1288.28L1320.04 103.796H1161.13H1161.09ZM1155.34 103.796H995.268L981.663 81.7089H1132.64L1155.3 103.796H1155.34ZM979.208 77.6863L967.576 58.7778H1109.17L1128.57 77.6863H979.248H979.208ZM974.499 77.6863H824.33L820.467 58.7778H962.867L974.499 77.6863ZM820.225 77.6863H669.735L673.599 58.7778H816.321L820.185 77.6863H820.225ZM665.63 77.6863H515.461L527.094 58.7778H669.494L665.63 77.6863ZM510.752 77.6863H361.429L380.829 58.7778H522.424L510.792 77.6863H510.752ZM508.257 81.7089L494.653 103.796H334.583L357.243 81.7089H508.217H508.257ZM492.157 107.819L476.178 133.768H303.833L330.478 107.819H492.197H492.157ZM473.723 137.791L454.766 168.568H268.132L299.687 137.791H473.683H473.723ZM452.311 172.591L429.65 209.362H226.273L264.027 172.591H452.311ZM220.518 209.362H18.3077L71.1547 172.591H258.272L220.518 209.362ZM216.372 213.385L170.609 258.002H-51.5637L12.5123 213.385H216.372ZM222.128 213.385H427.155L399.706 258.002H176.365L222.128 213.385ZM397.21 262.024L363.482 316.82H115.992L172.22 262.024H397.21ZM360.986 320.842L318.725 389.476H41.4111L111.846 320.842H360.986ZM365.696 320.842H615.681L601.594 389.476H323.434L365.696 320.842ZM619.786 320.842H870.094L884.181 389.476H605.699L619.786 320.842ZM874.199 320.842H1124.18L1166.45 389.476H888.286L874.199 320.842ZM1128.93 320.842H1378.07L1448.51 389.476H1171.15L1128.89 320.842H1128.93ZM1383.87 320.842H1631.84L1730.45 389.476H1454.31L1383.87 320.842ZM1379.72 316.82L1323.5 262.024H1547.32L1626.05 316.82H1379.72ZM1554.36 262.024H1776.86L1878.09 316.82H1633.09L1554.36 262.024ZM1548.57 258.002L1484.49 213.385H1687.02L1769.41 258.002H1548.57ZM1478.7 209.362L1425.85 172.591H1611.64L1679.58 209.362H1478.7ZM1420.05 168.568L1375.86 137.791H1547.36L1604.19 168.568H1420.05ZM1370.06 133.768L1332.79 107.819H1492.02L1539.95 133.768H1370.1H1370.06ZM1327 103.796L1295.24 81.7089H1443.72L1484.53 103.796H1326.96H1327ZM1289.49 77.6863L1262.36 58.7778H1401.42L1436.31 77.6863H1289.49ZM1282.44 77.6863H1134.25L1114.85 58.7778H1255.27L1282.4 77.6863H1282.44ZM1110.74 54.7545L1094 38.4203H1226.09L1249.56 54.7545H1110.78H1110.74ZM1104.99 54.7545H965.04L954.979 38.4203H1088.2L1104.95 54.7545H1104.99ZM960.332 54.7545H819.581L816.241 38.4203H950.31L960.371 54.7545H960.332ZM815.476 54.7545H674.404L677.744 38.4203H812.135L815.476 54.7545ZM670.299 54.7545H529.548L539.611 38.4203H673.679L670.339 54.7545H670.299ZM524.799 54.7545H384.854L401.597 38.4203H534.821L524.759 54.7545H524.799ZM379.098 54.7545H240.361L263.826 38.4203H395.882L379.138 54.7545H379.098ZM374.953 58.7778L355.553 77.6863H207.397L234.525 58.7778H374.913H374.953ZM351.448 81.7089L328.787 103.796H169.925L201.681 81.7089H351.487H351.448ZM324.642 107.819L297.997 133.768H126.819L164.089 107.819H324.602H324.642ZM293.891 137.791L262.337 168.568H76.8702L121.063 137.791H293.891ZM69.8259 168.568H-114.312L-57.4805 137.791H114.02L69.8259 168.568ZM64.0306 172.591L11.1837 209.362H-189.698L-121.758 172.591H64.0306ZM5.38818 213.385L-58.6877 258.002H-279.534L-197.144 213.385H5.38818ZM-64.484 262.024L-143.211 316.82H-388.205L-286.979 262.024H-64.444H-64.484ZM-57.4406 262.024H166.383L110.156 316.82H-136.167L-57.4406 262.024ZM106.01 320.842L35.5748 389.476H-240.613L-142.003 320.842H105.97H106.01ZM31.4292 393.5L-58.889 481.525H-372.87L-246.408 393.5H31.4292ZM37.1847 393.5H316.149L261.934 481.525H-53.1742L37.1439 393.5H37.1847ZM320.898 393.5H600.708L582.636 481.525H266.724L320.939 393.5H320.898ZM604.813 393.5H884.946L903.017 481.525H586.742L604.813 393.5ZM889.051 393.5H1168.86L1223.08 481.525H907.123L889.051 393.5ZM1173.61 393.5H1452.61L1542.97 481.525H1227.87L1173.65 393.5H1173.61ZM1458.37 393.5H1736.17L1862.63 481.525H1548.69L1458.37 393.5ZM1743.21 393.5H2019.72L2182.33 481.525H1869.71L1743.25 393.5H1743.21ZM1737.42 389.476L1638.81 320.842H1885.45L2012.23 389.476H1737.38H1737.42ZM1893.9 320.842H2139.14L2294.1 389.476H2020.69L1893.9 320.842ZM1886.46 316.82L1785.23 262.024H2006.32L2130.04 316.82H1886.46ZM1777.78 258.002L1695.4 213.385H1896.52L1997.22 258.002H1777.78ZM1687.95 209.362L1620.01 172.591H1804.35L1887.38 209.362H1687.91H1687.95ZM1612.56 168.568L1555.73 137.791H1725.82L1795.29 168.568H1612.6H1612.56ZM1548.29 133.768L1500.35 107.819H1658.12L1716.73 133.768H1548.29ZM1492.9 103.796L1452.09 81.7089H1599.12L1649.03 103.796H1492.9ZM1444.65 77.6863L1409.75 58.7778H1547.4L1590.06 77.6863H1444.69H1444.65ZM1402.3 54.7545L1372.16 38.4203H1501.44L1538.26 54.7545H1402.26H1402.3ZM1393.85 54.7545H1256.44L1232.98 38.4203H1363.71L1393.85 54.7545ZM1227.18 34.3977L1206.9 20.2762H1330.18L1356.26 34.3977H1227.18ZM1220.14 34.3977H1089.69L1075.2 20.2762H1199.85L1220.14 34.3977ZM1083.94 34.3977H952.362L943.669 20.2762H1069.45L1083.94 34.3977ZM947.612 34.3977H815.194L812.296 20.2762H938.919L947.612 34.3977ZM811.089 34.3977H678.348L681.246 20.2762H808.191L811.089 34.3977ZM674.243 34.3977H541.824L550.518 20.2762H677.141L674.243 34.3977ZM537.115 34.3977H405.542L420.031 20.2762H545.809L537.115 34.3977ZM399.786 34.3977H269.38L289.666 20.2762H414.276L399.786 34.3977ZM262.377 34.3977H133.299L159.38 20.2762H282.662L262.377 34.3977ZM256.581 38.4203L233.116 54.7545H95.6658L125.812 38.4203H256.541H256.581ZM227.36 58.7778L200.232 77.6863H53.4052L88.3005 58.7778H227.401H227.36ZM194.437 81.7089L162.68 103.796H5.10645L45.9186 81.7089H194.397H194.437ZM156.925 107.819L119.655 133.768H-50.1959L-2.25964 107.819H156.965H156.925ZM-58.6877 133.768H-227.089L-168.487 107.819H-10.7516L-58.6877 133.768ZM-66.1344 137.791L-122.966 168.568H-305.655L-236.185 137.791H-66.1344ZM-130.412 172.591L-198.352 209.362H-397.784L-314.751 172.591H-130.412ZM-205.797 213.385L-288.187 258.002H-507.583L-406.881 213.385H-205.797ZM-295.633 262.024L-396.859 316.82H-640.404L-516.68 262.024H-295.633ZM-404.305 320.842L-531.088 389.476H-804.458L-649.5 320.842H-404.305ZM-395.853 320.842H-149.208L-247.817 389.476H-522.676L-395.893 320.842H-395.853ZM-253.573 393.5L-380.035 481.525H-692.647L-530.042 393.5H-253.532H-253.573ZM-385.83 485.548L-552.983 601.896H-915.022L-700.093 485.548H-385.83ZM-378.787 485.548H-63.156L-182.574 601.896H-545.981L-378.827 485.548H-378.787ZM-57.3999 485.548H259.358L187.715 601.896H-176.818L-57.3999 485.548ZM264.108 485.548H581.671L557.803 601.896H192.464L264.108 485.548ZM585.776 485.548H903.701L927.569 601.896H561.908L585.776 485.548ZM931.675 601.896L907.806 485.548H1225.41L1297.05 601.896H931.675ZM1301.76 601.896L1230.12 485.548H1546.88L1666.3 601.896H1301.76ZM1672.05 601.896L1552.63 485.548H1868.22L2035.38 601.896H1672.05ZM2042.42 601.896L1875.27 485.548H2189.53L2404.46 601.896H2042.42ZM2412.91 601.896L2197.98 485.548H2510.8L2773.5 601.896H2412.91ZM2190.54 481.525L2027.93 393.5H2302.99L2501.74 481.525H2190.58H2190.54ZM2312.89 393.5H2586.42L2821.32 481.525H2511.64L2312.89 393.5ZM2303.8 389.476L2148.84 320.842H2392.54L2575.68 389.476H2303.8ZM2139.74 316.82L2016.02 262.024H2235.57L2381.8 316.82H2139.74ZM2006.92 258.002L1906.22 213.385H2105.81L2224.83 258.002H2006.92ZM1897.12 209.362L1814.09 172.591H1996.94L2095.07 209.362H1897.12ZM1804.99 168.568L1735.52 137.791H1904.09L1986.19 168.568H1804.99ZM1726.43 133.768L1667.82 107.819H1824.07L1893.3 133.768H1726.39H1726.43ZM1658.77 103.796L1608.86 81.7089H1754.4L1813.36 103.796H1658.77ZM1599.8 77.6863L1557.14 58.7778H1693.26L1743.65 77.6863H1599.76H1599.8ZM1548.09 54.7545L1511.26 38.4203H1639.05L1682.6 54.7545H1548.12H1548.09ZM1492.22 34.3977H1364.59L1338.51 20.2762H1460.34L1492.22 34.3977ZM1331.06 16.2536L1308.48 4.0233H1423.68L1451.29 16.2536H1331.1H1331.06ZM1322.61 16.2536H1200.98L1183.43 4.0233H1300.03L1322.61 16.2536ZM1193.94 16.2536H1070.94L1058.38 4.0233H1176.35L1193.94 16.2536ZM1065.18 16.2536H941.052L933.525 4.0233H1052.62L1065.18 16.2536ZM936.303 16.2536H811.33L808.835 4.0233H928.776L936.303 16.2536ZM807.225 16.2536H681.93L684.426 4.0233H804.689L807.184 16.2536H807.225ZM677.825 16.2536H552.853L560.379 4.0233H680.321L677.825 16.2536ZM548.143 16.2536H424.016L436.573 4.0233H555.67L548.143 16.2536ZM418.26 16.2536H295.3L312.889 4.0233H430.818L418.26 16.2536ZM288.297 16.2536H166.665L189.245 4.0233H305.845L288.256 16.2536H288.297ZM158.213 16.2536H38.0297L65.6403 4.0233H180.792L158.213 16.2536ZM150.767 20.2762L124.686 34.3977H-2.94324L28.9332 20.2762H150.767ZM-12.8851 34.3977H-139.025L-101.352 20.2762H18.9921L-12.8851 34.3977ZM-21.9813 38.4203L-58.8091 54.7545H-193.28L-149.731 38.4203H-21.9408H-21.9813ZM-12.0396 38.4203H117.239L87.0933 54.7545H-48.8673L-12.0396 38.4203ZM79.6473 58.7778L44.7512 77.6863H-100.627L-57.9635 58.7778H79.6473ZM37.3052 81.7089L-3.50696 103.796H-159.591L-109.683 81.7089H37.3452H37.3052ZM-169.573 103.796H-324.17L-265.205 81.7089H-119.665L-169.573 103.796ZM-178.67 107.819L-237.272 133.768H-404.184L-334.956 107.819H-178.71H-178.67ZM-246.328 137.791L-315.797 168.568H-496.998L-414.89 137.791H-246.328ZM-324.894 172.591L-407.927 209.362H-605.871L-507.745 172.591H-324.894ZM-417.023 213.385L-517.726 258.002H-735.633L-616.617 213.385H-417.023ZM-526.822 262.024L-650.547 316.82H-892.603L-746.38 262.024H-526.822ZM-659.643 320.842L-814.601 389.476H-1086.48L-903.35 320.842H-659.643ZM-823.697 393.5L-1022.45 481.525H-1331.64L-1096.79 393.5H-823.255H-823.697ZM-813.756 393.5H-538.736L-701.341 481.525H-1012.46L-813.716 393.5H-813.756ZM-708.787 485.548L-923.716 601.896H-1283.78L-1021.08 485.548H-708.304H-708.787ZM2783.24 601.896L2520.54 485.548H2831.86L3142.3 601.896H2783.2H2783.24ZM1580.24 16.2536H1461.55L1433.94 4.0233H1547.6L1580.24 16.2536ZM-57.6012 4.0233H56.061L28.4508 16.2536H-90.2432L-57.6012 4.0233ZM-203.624 58.7778H-67.5022L-110.166 77.6863H-254.056L-203.665 58.7778H-203.624ZM-1342.34 485.588H-1031.02L-1293.72 601.936H-1652.82L-1342.38 485.588H-1342.34Z" fill="url(#paint0_linear_922_7403)"/>
<defs>
<linearGradient id="paint0_linear_922_7403" x1="-1674.3" y1="0" x2="-1674.3" y2="4836.95" gradientUnits="userSpaceOnUse">
<stop stop-color="#4B00FF" stop-opacity="0.09"/>
<stop offset="1" stop-color="#020335"/>
</linearGradient>
</defs>
</svg>
