<svg width="33" height="32" viewBox="0 0 33 32" fill="none" xmlns="http://www.w3.org/2000/svg">
<g clip-path="url(#clip0_1422_3106)">
<path d="M5.00987 3.55556C4.63267 3.55556 4.27092 3.7054 4.00421 3.97212C3.73749 4.23884 3.58765 4.60058 3.58765 4.97778V10.6667H10.6988V3.55556H5.00987ZM8.92098 8.88889H5.36542V5.33334H8.92098V8.88889Z" fill="white"/>
<path d="M3.58765 27.0222C3.58765 27.3994 3.73749 27.7612 4.00421 28.0279C4.27092 28.2946 4.63267 28.4444 5.00987 28.4444H10.6988V21.3333H3.58765V27.0222ZM5.36542 23.1111H8.92098V26.6667H5.36542V23.1111Z" fill="white"/>
<path d="M21.3652 28.4444H27.0541C27.4313 28.4444 27.7931 28.2946 28.0598 28.0279C28.3265 27.7612 28.4763 27.3994 28.4763 27.0222V21.3333H21.3652V28.4444ZM23.143 23.1111H26.6986V26.6667H23.143V23.1111Z" fill="white"/>
<path d="M27.0541 3.55556H21.3652V10.6667H28.4763V4.97778C28.4763 4.60058 28.3265 4.23884 28.0598 3.97212C27.7931 3.7054 27.4313 3.55556 27.0541 3.55556ZM26.6986 8.88889H23.143V5.33334H26.6986V8.88889Z" fill="white"/>
<path d="M17.8097 8.88889V7.11111H14.2542V10.6667H16.0319V8.88889H17.8097Z" fill="white"/>
<path d="M10.6987 10.6667H12.4765V12.4444H10.6987V10.6667Z" fill="white"/>
<path d="M12.4763 12.4444H16.0319V14.2222H12.4763V12.4444Z" fill="white"/>
<path d="M17.8097 5.33334V7.11111H19.5874V3.55556H12.4763V7.11111H14.2541V5.33334H17.8097Z" fill="white"/>
<path d="M3.58765 12.4444H5.36542V16H3.58765V12.4444Z" fill="white"/>
<path d="M10.6988 14.2222V16H8.92098V12.4444H7.1432V16H5.36542V17.7778H3.58765V19.5556H7.1432V17.7778H8.92098V19.5556H10.6988V17.7778H12.4765V14.2222H10.6988Z" fill="white"/>
<path d="M17.8098 14.2222H19.5875V16H21.3653V14.2222H23.1431V12.4444H19.5875V8.88889H17.8098V10.6667H16.032V12.4444H17.8098V14.2222Z" fill="white"/>
<path d="M16.0319 26.6667H12.4763V28.4444H19.5874V26.6667H17.8097V24.8889H16.0319V26.6667Z" fill="white"/>
<path d="M19.5875 17.7778V16H17.8097V14.2222H16.0319V16H14.2542V17.7778H16.0319V19.5556H17.8097V17.7778H19.5875Z" fill="white"/>
<path d="M26.6987 17.7778H28.4765V19.5555H26.6987V17.7778Z" fill="white"/>
<path d="M19.5876 17.7778H24.921V19.5555H19.5876V17.7778Z" fill="white"/>
<path d="M26.6986 12.4444H24.9208V14.2222H23.1431V16H24.9208V17.7778H26.6986V16H28.4764V14.2222H26.6986V12.4444Z" fill="white"/>
<path d="M17.8098 19.5556H19.5876V24.8889H17.8098V19.5556Z" fill="white"/>
<path d="M12.4763 24.8889H14.2541V23.1111H16.0319V21.3333H14.2541V17.7778H12.4763V24.8889Z" fill="white"/>
</g>
<defs>
<clipPath id="clip0_1422_3106">
<rect width="32" height="32" fill="white" transform="translate(0.0319824)"/>
</clipPath>
</defs>
</svg>
