<svg width="24" height="25" viewBox="0 0 24 25" fill="none" xmlns="http://www.w3.org/2000/svg">
<path d="M17.92 12.1199C17.8724 11.9972 17.801 11.885 17.71 11.7899L12.71 6.78994C12.6168 6.6967 12.5061 6.62274 12.3842 6.57228C12.2624 6.52182 12.1319 6.49585 12 6.49585C11.7337 6.49585 11.4783 6.60164 11.29 6.78994C11.1968 6.88318 11.1228 6.99387 11.0723 7.11569C11.0219 7.23751 10.9959 7.36808 10.9959 7.49994C10.9959 7.76624 11.1017 8.02164 11.29 8.20994L14.59 11.4999H7C6.73478 11.4999 6.48043 11.6053 6.29289 11.7928C6.10536 11.9804 6 12.2347 6 12.4999C6 12.7652 6.10536 13.0195 6.29289 13.207C6.48043 13.3946 6.73478 13.4999 7 13.4999H14.59L11.29 16.7899C11.1963 16.8829 11.1219 16.9935 11.0711 17.1154C11.0203 17.2372 10.9942 17.3679 10.9942 17.4999C10.9942 17.632 11.0203 17.7627 11.0711 17.8845C11.1219 18.0064 11.1963 18.117 11.29 18.2099C11.383 18.3037 11.4936 18.3781 11.6154 18.4288C11.7373 18.4796 11.868 18.5057 12 18.5057C12.132 18.5057 12.2627 18.4796 12.3846 18.4288C12.5064 18.3781 12.617 18.3037 12.71 18.2099L17.71 13.2099C17.801 13.1148 17.8724 13.0027 17.92 12.8799C18.02 12.6365 18.02 12.3634 17.92 12.1199Z" fill="#FAFAFA"/>
</svg>
